<svg width="783" height="137" viewBox="0 0 783 137" fill="none" xmlns="http://www.w3.org/2000/svg">
<g clip-path="url(#clip0_3957_4974)">
<path d="M86.2381 109.531C83.2403 103.76 80.2098 98.0035 77.2582 92.2091C73.7005 85.2189 70.2307 78.1828 66.6849 71.188C60.2069 58.411 53.6232 45.6938 47.2688 32.8525C46.2428 30.7769 45.1602 28.7335 44.1013 26.6748C43.9048 26.2931 43.6545 25.9895 43.178 26.0003C42.7015 26.011 42.4558 26.3069 42.2622 26.6947C42.0998 27.0151 41.9539 27.3462 41.7916 27.6666C39.0118 33.1729 36.228 38.6797 33.4402 44.187C31.4784 48.0622 29.5137 51.9359 27.5459 55.8081C25.3956 60.0502 23.2471 64.2913 21.1007 68.5314C18.9046 72.8635 16.7041 77.1935 14.4991 81.5215C12.7121 85.0268 10.9251 88.5316 9.13804 92.0359C6.20433 97.7843 3.26862 103.531 0.330932 109.275C0.0926614 109.735 -0.208134 110.195 0.204373 110.699C0.616879 111.204 1.0651 110.955 1.51931 110.8C6.45896 109.114 11.3942 107.428 16.3383 105.762C24.8877 102.881 33.4461 100.025 41.9926 97.1344C42.6316 96.906 43.3268 96.906 43.9658 97.1344C50.0194 99.1272 56.0893 101.086 62.134 103.113C69.6871 105.634 77.224 108.207 84.7697 110.758C85.0541 110.854 85.3431 110.937 85.5262 110.995C86.4138 110.984 86.6595 110.345 86.2381 109.531ZM68.2531 96.3327C67.1243 95.9801 66.0014 95.5999 64.8756 95.2335C57.926 92.973 50.9789 90.7098 44.0343 88.4442C43.3238 88.1902 42.5514 88.1876 41.8392 88.4365C34.2036 91.0262 26.5616 93.5959 18.9131 96.1457C18.5244 96.276 18.0092 96.6515 17.7337 96.3235C17.4582 95.9954 17.8826 95.5171 18.0777 95.1446C21.7649 87.9061 25.4581 80.6712 29.1573 73.4399C33.5673 64.8095 37.9768 56.1796 42.3858 47.5502C42.5347 47.2528 42.6598 46.937 42.8132 46.6427C42.9144 46.445 42.9695 46.1568 43.245 46.1629C43.5206 46.169 43.5682 46.4603 43.668 46.6565C44.9174 49.1092 46.1564 51.5619 47.4058 54.0146C50.5262 60.13 53.647 66.2433 56.7684 72.3545C59.6773 78.057 62.5822 83.7606 65.4832 89.4651C66.5097 91.4814 67.5353 93.4978 68.5598 95.5141C68.6641 95.7179 68.7549 95.9295 68.8383 96.1088C68.7534 96.6055 68.4511 96.3955 68.2531 96.3327Z" fill="#85AFFF"/>
<path d="M58.0864 86.6121C56.8951 86.2611 55.6695 85.8947 54.4379 85.5391C52.5764 84.9918 50.7149 84.4215 48.8504 83.9218C48.5706 83.8617 48.3079 83.736 48.083 83.5544C47.858 83.3729 47.6768 83.1403 47.5534 82.8748C46.2915 80.37 45.0192 77.8718 43.7365 75.3803C43.6129 75.1412 43.5712 74.7549 43.2526 74.7534C42.9339 74.7518 42.8892 75.1381 42.7656 75.3773C41.4536 77.9112 40.1416 80.4452 38.8535 82.9929C38.5869 83.5187 38.2265 83.7777 37.6621 83.9341C34.6078 84.7879 31.5654 85.6939 28.5155 86.5676C28.2728 86.6382 27.9496 86.8742 27.759 86.5815C27.6101 86.3561 27.8766 86.1078 27.9883 85.884C31.0307 79.7277 34.2325 73.6619 37.4849 67.6191C39.2615 64.3157 40.9398 60.957 42.6718 57.6275C43.1334 56.7399 43.1617 56.7399 43.6666 57.6275C46.1699 62.027 48.432 66.5644 50.7819 71.0498C53.2302 75.7176 55.6158 80.4191 58.0268 85.1068C58.1907 85.4272 58.3336 85.7598 58.4885 86.0848C58.6821 86.4757 58.5898 86.675 58.0864 86.6121Z" fill="white"/>
<path d="M163.636 54.3828C163.075 52.4299 162.285 50.7044 161.269 49.2063C160.252 47.6815 159.008 46.3974 157.537 45.354C156.092 44.284 154.434 43.468 152.561 42.9062C150.715 42.3445 148.669 42.0636 146.422 42.0636C142.221 42.0636 138.53 43.1069 135.346 45.1935C132.19 47.2802 129.728 50.3165 127.963 54.3026C126.197 58.2618 125.314 63.1039 125.314 68.8288C125.314 74.5537 126.184 79.4226 127.923 83.4354C129.661 87.4482 132.123 90.5112 135.306 92.6246C138.49 94.7113 142.248 95.7546 146.582 95.7546C150.515 95.7546 153.872 95.0591 156.654 93.668C159.463 92.2501 161.603 90.2571 163.075 87.6889C164.573 85.1207 165.322 82.0844 165.322 78.5799L168.853 79.1016H147.665V66.0199H182.055V76.3729C182.055 83.5959 180.53 89.8023 177.48 94.9922C174.431 100.155 170.231 104.141 164.88 106.95C159.53 109.732 153.404 111.124 146.502 111.124C138.797 111.124 132.029 109.425 126.197 106.027C120.365 102.603 115.817 97.7476 112.554 91.4609C109.317 85.1475 107.698 77.657 107.698 68.9893C107.698 62.3281 108.661 56.3892 110.587 51.1726C112.54 45.9292 115.269 41.4884 118.773 37.8501C122.278 34.2119 126.358 31.4431 131.012 29.5437C135.667 27.6443 140.71 26.6946 146.141 26.6946C150.795 26.6946 155.129 27.3768 159.142 28.7411C163.155 30.0787 166.713 31.9781 169.816 34.4393C172.946 36.9004 175.501 39.8298 177.48 43.2273C179.46 46.598 180.731 50.3165 181.293 54.3828H163.636ZM222.875 111.204C216.535 111.204 211.078 109.92 206.503 107.352C201.955 104.757 198.451 101.092 195.989 96.3565C193.528 91.5947 192.298 85.9634 192.298 79.4627C192.298 73.1225 193.528 67.5581 195.989 62.7695C198.451 57.9809 201.915 54.2491 206.383 51.5739C210.877 48.8987 216.147 47.5611 222.193 47.5611C226.259 47.5611 230.045 48.2165 233.549 49.5273C237.08 50.8114 240.157 52.7509 242.779 55.3459C245.427 57.9408 247.487 61.2045 248.958 65.1371C250.43 69.0428 251.165 73.6174 251.165 78.8608V83.5558H199.119V72.962H235.074C235.074 70.5008 234.539 68.3205 233.469 66.4212C232.399 64.5218 230.914 63.037 229.015 61.967C227.142 60.8701 224.962 60.3217 222.474 60.3217C219.879 60.3217 217.578 60.9236 215.572 62.1275C213.592 63.3046 212.041 64.8963 210.917 66.9027C209.793 68.8823 209.218 71.0894 209.191 73.5238V83.5959C209.191 86.6456 209.753 89.2807 210.877 91.5011C212.027 93.7215 213.646 95.4336 215.732 96.6374C217.819 97.8413 220.294 98.4432 223.156 98.4432C225.055 98.4432 226.794 98.1757 228.373 97.6406C229.951 97.1056 231.302 96.303 232.426 95.233C233.549 94.1629 234.405 92.852 234.994 91.3004L250.804 92.3438C250.002 96.1425 248.356 99.4598 245.868 102.295C243.407 105.104 240.224 107.298 236.318 108.876C232.439 110.428 227.958 111.204 222.875 111.204ZM313.604 65.9396L297.954 66.9027C297.687 65.5651 297.112 64.3613 296.229 63.2912C295.346 62.1944 294.182 61.3249 292.738 60.6829C291.32 60.0141 289.621 59.6797 287.641 59.6797C284.993 59.6797 282.759 60.2415 280.94 61.3651C279.121 62.4619 278.211 63.9332 278.211 65.7791C278.211 67.2505 278.8 68.4944 279.977 69.511C281.154 70.5276 283.174 71.3435 286.036 71.9588L297.192 74.206C303.184 75.4366 307.652 77.4162 310.595 80.1449C313.537 82.8736 315.009 86.4583 315.009 90.8991C315.009 94.9387 313.818 98.4833 311.437 101.533C309.083 104.583 305.846 106.964 301.726 108.676C297.633 110.361 292.912 111.204 287.561 111.204C279.402 111.204 272.901 109.505 268.059 106.108C263.244 102.683 260.421 98.0285 259.592 92.1431L276.406 91.2603C276.914 93.7482 278.145 95.6476 280.097 96.9585C282.05 98.2425 284.552 98.8846 287.601 98.8846C290.598 98.8846 293.005 98.3094 294.824 97.1591C296.67 95.982 297.607 94.4705 297.633 92.6246C297.607 91.073 296.951 89.8023 295.667 88.8125C294.383 87.7959 292.403 87.0201 289.728 86.4851L279.054 84.3583C273.035 83.1545 268.554 81.0678 265.611 78.0984C262.695 75.1289 261.237 71.3435 261.237 66.7422C261.237 62.7829 262.307 59.372 264.448 56.5096C266.614 53.6471 269.651 51.4401 273.557 49.8885C277.489 48.3369 282.09 47.5611 287.361 47.5611C295.145 47.5611 301.272 49.2063 305.739 52.4968C310.233 55.7873 312.855 60.2682 313.604 65.9396ZM358.557 48.3636V61.2045H321.439V48.3636H358.557ZM329.866 33.5966H346.96V91.0597C346.96 92.638 347.201 93.8686 347.683 94.7514C348.164 95.6075 348.833 96.2094 349.689 96.5572C350.572 96.9049 351.588 97.0788 352.739 97.0788C353.541 97.0788 354.344 97.012 355.146 96.8782C355.949 96.7177 356.564 96.5973 356.992 96.517L359.681 109.238C358.825 109.505 357.621 109.813 356.069 110.161C354.518 110.535 352.632 110.762 350.411 110.843C346.292 111.003 342.68 110.455 339.577 109.197C336.5 107.94 334.106 105.987 332.394 103.339C330.682 100.69 329.839 97.3464 329.866 93.3068V33.5966ZM396.879 111.204C390.646 111.204 385.256 109.88 380.708 107.231C376.187 104.556 372.696 100.837 370.235 96.0756C367.773 91.287 366.543 85.736 366.543 79.4226C366.543 73.0556 367.773 67.4912 370.235 62.7294C372.696 57.9408 376.187 54.2223 380.708 51.5739C385.256 48.8987 390.646 47.5611 396.879 47.5611C403.113 47.5611 408.49 48.8987 413.011 51.5739C417.559 54.2223 421.063 57.9408 423.524 62.7294C425.986 67.4912 427.216 73.0556 427.216 79.4226C427.216 85.736 425.986 91.287 423.524 96.0756C421.063 100.837 417.559 104.556 413.011 107.231C408.49 109.88 403.113 111.204 396.879 111.204ZM396.96 97.9616C399.795 97.9616 402.163 97.1591 404.062 95.554C405.962 93.9221 407.393 91.7017 408.356 88.8928C409.346 86.0838 409.841 82.887 409.841 79.3022C409.841 75.7174 409.346 72.5206 408.356 69.7116C407.393 66.9027 405.962 64.6823 404.062 63.0504C402.163 61.4186 399.795 60.6026 396.96 60.6026C394.097 60.6026 391.69 61.4186 389.737 63.0504C387.811 64.6823 386.353 66.9027 385.363 69.7116C384.4 72.5206 383.918 75.7174 383.918 79.3022C383.918 82.887 384.4 86.0838 385.363 88.8928C386.353 91.7017 387.811 93.9221 389.737 95.554C391.69 97.1591 394.097 97.9616 396.96 97.9616ZM438.331 110V48.3636H454.904V59.1179H455.546C456.67 55.2924 458.556 52.4032 461.204 50.4503C463.853 48.4706 466.903 47.4808 470.354 47.4808C471.21 47.4808 472.133 47.5343 473.122 47.6413C474.112 47.7483 474.982 47.8955 475.731 48.0827V63.2511C474.928 63.0103 473.818 62.7963 472.4 62.609C470.982 62.4218 469.685 62.3281 468.508 62.3281C465.993 62.3281 463.746 62.8765 461.766 63.9734C459.813 65.0434 458.262 66.5415 457.111 68.4677C455.988 70.3938 455.426 72.6142 455.426 75.1289V110H438.331ZM500.379 111.164C496.447 111.164 492.942 110.482 489.866 109.117C486.789 107.726 484.355 105.68 482.562 102.978C480.797 100.249 479.914 96.8514 479.914 92.7852C479.914 89.3609 480.543 86.4851 481.8 84.1577C483.057 81.8303 484.769 79.9576 486.936 78.5398C489.103 77.1219 491.564 76.0518 494.32 75.3295C497.102 74.6072 500.018 74.099 503.068 73.8047C506.652 73.4302 509.542 73.0824 511.735 72.7614C513.929 72.4136 515.521 71.9053 516.511 71.2365C517.5 70.5677 517.995 69.5779 517.995 68.267V68.0263C517.995 65.4848 517.193 63.5186 515.588 62.1275C514.009 60.7364 511.762 60.0408 508.846 60.0408C505.77 60.0408 503.322 60.723 501.503 62.0874C499.684 63.425 498.48 65.1103 497.891 67.1435L482.081 65.8594C482.883 62.1141 484.462 58.8771 486.816 56.1484C489.17 53.393 492.206 51.2796 495.925 49.8082C499.67 48.3101 504.004 47.5611 508.926 47.5611C512.351 47.5611 515.628 47.9624 518.758 48.7649C521.914 49.5675 524.71 50.8114 527.144 52.4968C529.606 54.1822 531.545 56.3491 532.963 58.9975C534.381 61.6192 535.09 64.7625 535.09 68.4276V110H518.878V101.453H518.397C517.407 103.379 516.083 105.078 514.424 106.549C512.765 107.994 510.772 109.131 508.445 109.96C506.117 110.762 503.429 111.164 500.379 111.164ZM505.275 99.3661C507.789 99.3661 510.01 98.8712 511.936 97.8814C513.862 96.8648 515.374 95.5005 516.47 93.7884C517.567 92.0762 518.116 90.1367 518.116 87.9698V81.429C517.581 81.7768 516.845 82.0978 515.909 82.392C514.999 82.6596 513.969 82.9137 512.819 83.1545C511.668 83.3685 510.518 83.5691 509.368 83.7564C508.217 83.9169 507.174 84.064 506.238 84.1978C504.231 84.4921 502.479 84.9602 500.981 85.6023C499.483 86.2443 498.319 87.1138 497.49 88.2106C496.661 89.2807 496.246 90.6183 496.246 92.2234C496.246 94.5508 497.089 96.3298 498.774 97.5604C500.486 98.7642 502.653 99.3661 505.275 99.3661Z" fill="white"/>
<path d="M624.194 68.9091C624.194 77.871 622.495 85.4953 619.097 91.782C615.727 98.0687 611.125 102.871 605.293 106.188C599.488 109.478 592.961 111.124 585.711 111.124C578.408 111.124 571.854 109.465 566.048 106.148C560.243 102.83 555.655 98.0285 552.285 91.7418C548.914 85.4551 547.228 77.8442 547.228 68.9091C547.228 59.9472 548.914 52.3229 552.285 46.0362C555.655 39.7495 560.243 34.9609 566.048 31.6705C571.854 28.3532 578.408 26.6946 585.711 26.6946C592.961 26.6946 599.488 28.3532 605.293 31.6705C611.125 34.9609 615.727 39.7495 619.097 46.0362C622.495 52.3229 624.194 59.9472 624.194 68.9091ZM606.578 68.9091C606.578 63.1039 605.708 58.2083 603.969 54.2223C602.257 50.2363 599.836 47.2133 596.706 45.1534C593.576 43.0935 589.911 42.0636 585.711 42.0636C581.511 42.0636 577.846 43.0935 574.716 45.1534C571.586 47.2133 569.152 50.2363 567.413 54.2223C565.701 58.2083 564.845 63.1039 564.845 68.9091C564.845 74.7143 565.701 79.6098 567.413 83.5959C569.152 87.5819 571.586 90.6049 574.716 92.6648C577.846 94.7247 581.511 95.7546 585.711 95.7546C589.911 95.7546 593.576 94.7247 596.706 92.6648C599.836 90.6049 602.257 87.5819 603.969 83.5959C605.708 79.6098 606.578 74.7143 606.578 68.9091ZM705.804 27.8182V110H690.796L655.042 58.2752H654.44V110H637.065V27.8182H652.313L687.786 79.5028H688.509V27.8182H705.804ZM720.159 110V27.8182H775.536V42.1438H737.535V61.7262H772.687V76.0518H737.535V95.6744H775.696V110H720.159Z" fill="#85AFFF"/>
</g>
<defs>
<clipPath id="clip0_3957_4974">
<rect width="783" height="137" fill="white"/>
</clipPath>
</defs>
</svg>
