<svg width="87" height="85" viewBox="0 0 87 85" fill="none" xmlns="http://www.w3.org/2000/svg">
<path d="M86.2381 83.5312C83.2403 77.7597 80.2098 72.0035 77.2582 66.2091C73.7005 59.2189 70.2307 52.1828 66.6849 45.188C60.2069 32.411 53.6232 19.6938 47.2688 6.85247C46.2428 4.77688 45.1602 2.73349 44.1013 0.674769C43.9048 0.293069 43.6545 -0.0104545 43.178 0.000275989C42.7015 0.0110065 42.4558 0.306867 42.2622 0.694698C42.0998 1.01508 41.9539 1.34619 41.7916 1.66657C39.0118 7.17286 36.228 12.6797 33.4402 18.187C31.4784 22.0622 29.5137 25.9359 27.5459 29.8081C25.3956 34.0502 23.2471 38.2913 21.1007 42.5314C18.9046 46.8635 16.7041 51.1935 14.4991 55.5215C12.7121 59.0268 10.9251 62.5316 9.13804 66.0359C6.20433 71.7843 3.26862 77.5308 0.330932 83.2752C0.0926614 83.7351 -0.208134 84.1949 0.204373 84.6993C0.616879 85.2036 1.0651 84.9553 1.51931 84.8004C6.45896 83.1142 11.3942 81.428 16.3383 79.7617C24.8877 76.8813 33.4461 74.0255 41.9926 71.1344C42.6316 70.906 43.3268 70.906 43.9658 71.1344C50.0194 73.1272 56.0893 75.0863 62.134 77.1128C69.6871 79.6345 77.224 82.2067 84.7697 84.7575C85.0541 84.8541 85.3431 84.9369 85.5262 84.9951C86.4138 84.9844 86.6595 84.3452 86.2381 83.5312ZM68.2531 70.3327C67.1243 69.9801 66.0014 69.5999 64.8756 69.2335C57.926 66.973 50.9789 64.7098 44.0343 62.4442C43.3238 62.1902 42.5514 62.1876 41.8392 62.4365C34.2036 65.0262 26.5616 67.5959 18.9131 70.1457C18.5244 70.276 18.0092 70.6515 17.7337 70.3235C17.4582 69.9954 17.8826 69.5171 18.0777 69.1446C21.7649 61.9061 25.4581 54.6712 29.1573 47.4399C33.5673 38.8095 37.9768 30.1796 42.3858 21.5502C42.5347 21.2528 42.6598 20.937 42.8132 20.6427C42.9144 20.445 42.9695 20.1568 43.245 20.1629C43.5206 20.169 43.5682 20.4603 43.668 20.6565C44.9174 23.1092 46.1564 25.5619 47.4058 28.0146C50.5262 34.13 53.647 40.2433 56.7684 46.3545C59.6773 52.057 62.5822 57.7606 65.4832 63.4651C66.5097 65.4814 67.5353 67.4978 68.5598 69.5141C68.6641 69.7179 68.7549 69.9295 68.8383 70.1088C68.7534 70.6055 68.4511 70.3955 68.2531 70.3327Z" fill="#85AFFF"/>
<path d="M58.0864 60.6121C56.8951 60.2611 55.6695 59.8947 54.4379 59.5391C52.5764 58.9918 50.7149 58.4215 48.8504 57.9218C48.5706 57.8617 48.3079 57.736 48.083 57.5544C47.858 57.3729 47.6768 57.1403 47.5534 56.8748C46.2915 54.37 45.0192 51.8718 43.7365 49.3803C43.6129 49.1412 43.5712 48.7549 43.2526 48.7534C42.9339 48.7518 42.8892 49.1381 42.7656 49.3773C41.4536 51.9112 40.1416 54.4452 38.8535 56.9929C38.5869 57.5187 38.2265 57.7777 37.6621 57.9341C34.6078 58.7879 31.5654 59.6939 28.5155 60.5676C28.2728 60.6382 27.9496 60.8742 27.759 60.5815C27.6101 60.3561 27.8766 60.1078 27.9883 59.884C31.0307 53.7277 34.2325 47.6619 37.4849 41.6191C39.2615 38.3157 40.9398 34.957 42.6718 31.6275C43.1334 30.7399 43.1617 30.7399 43.6666 31.6275C46.1699 36.027 48.432 40.5644 50.7819 45.0498C53.2302 49.7176 55.6158 54.4191 58.0268 59.1068C58.1907 59.4272 58.3336 59.7598 58.4885 60.0848C58.6821 60.4757 58.5898 60.675 58.0864 60.6121Z" fill="#00102A"/>
</svg>
